<?xml version="1.0" encoding="UTF-8" standalone="no"?>
<!-- Created with Inkscape (http://www.inkscape.org/) -->

<svg
   xmlns:dc="http://purl.org/dc/elements/1.1/"
   xmlns:cc="http://creativecommons.org/ns#"
   xmlns:rdf="http://www.w3.org/1999/02/22-rdf-syntax-ns#"
   xmlns:svg="http://www.w3.org/2000/svg"
   xmlns="http://www.w3.org/2000/svg"
   xmlns:sodipodi="http://sodipodi.sourceforge.net/DTD/sodipodi-0.dtd"
   xmlns:inkscape="http://www.inkscape.org/namespaces/inkscape"
   width="1024"
   height="1024"
   id="svg2"
   version="1.1"
   inkscape:version="0.48.4 r9939"
   sodipodi:docname="mapparts.svg"
   inkscape:export-filename="C:\Users\Paddel\Desktop\Sourcen\Blocker-Mod\data\editor\mapparts.png"
   inkscape:export-xdpi="90"
   inkscape:export-ydpi="90">
  <defs
     id="defs4" />
  <sodipodi:namedview
     id="base"
     pagecolor="#ffffff"
     bordercolor="#666666"
     borderopacity="1.0"
     inkscape:pageopacity="0.0"
     inkscape:pageshadow="2"
     inkscape:zoom="0.98994951"
     inkscape:cx="509.81826"
     inkscape:cy="900.24423"
     inkscape:document-units="px"
     inkscape:current-layer="layer1"
     showgrid="true"
     inkscape:snap-bbox="true"
     inkscape:snap-page="true"
     inkscape:snap-global="true"
     inkscape:window-width="1920"
     inkscape:window-height="1018"
     inkscape:window-x="-8"
     inkscape:window-y="-8"
     inkscape:window-maximized="1">
    <inkscape:grid
       type="xygrid"
       id="grid2996"
       empspacing="5"
       visible="true"
       enabled="true"
       snapvisiblegridlinesonly="true"
       spacingx="64px"
       spacingy="64px" />
  </sodipodi:namedview>
  <metadata
     id="metadata7">
    <rdf:RDF>
      <cc:Work
         rdf:about="">
        <dc:format>image/svg+xml</dc:format>
        <dc:type
           rdf:resource="http://purl.org/dc/dcmitype/StillImage" />
        <dc:title />
      </cc:Work>
    </rdf:RDF>
  </metadata>
  <g
     inkscape:label="Ebene 1"
     inkscape:groupmode="layer"
     id="layer1"
     transform="translate(0,-28.362183)">
    <path
       style="fill:#ff8989;fill-opacity:0.39215687;stroke:none"
       d="m 64,28.362176 0,63.999997 64,0 0,-63.999997 -64,0 z m 54.5625,24.781247 c 0.55297,2e-5 1.01415,0.14345 1.34375,0.4375 0.62328,0.412 0.93749,1.0901 0.9375,2.03125 -0.10585,0.97633 -0.41224,2.02687 -0.90625,3.15625 -0.29408,0.65882 -0.80567,1.65504 -1.5,2.9375 -1e-5,0.50575 0.0117,1.23035 0,2.21875 -0.0234,0.87049 -0.15907,1.61109 -0.40625,2.1875 -0.30579,0.69434 -0.81385,1.15943 -1.53125,1.40625 -0.18824,0.0238 -0.32386,0.0312 -0.40625,0.0312 -0.94117,0 -1.60401,-0.35254 -1.96875,-1.09375 -0.1648,-0.47058 -0.25,-1.10998 -0.25,-1.875 0,-0.36437 0.0195,-0.71337 0.0312,-1.03125 0.0117,-0.42333 0.0117,-0.72546 0,-0.9375 -1.92915,-3.29406 -2.9062,-5.64293 -2.9062,-7.03125 0,-0.82323 0.3064,-1.38133 0.90625,-1.6875 0.29407,-0.15269 0.62744,-0.21873 0.96875,-0.21875 0.72949,2e-5 1.24499,0.26735 1.5625,0.84375 0.25891,0.28236 0.51489,0.80958 0.75,1.5625 0.30615,0.98805 0.48437,1.51136 0.53125,1.59375 0.51782,-2.21153 1.11852,-3.66112 1.8125,-4.34375 0.32922,-0.12926 0.6665,-0.18748 1.03125,-0.1875 z m -24.65625,0.375 c 0.482295,2e-5 0.846552,0.0156 1.09375,0.0625 1.293816,0.24721 2.239616,0.70625 2.875,1.40625 0.635367,0.70003 0.996084,1.60536 1.03125,2.6875 -0.09413,0.63539 -0.357919,1.16261 -0.78125,1.5625 -0.188241,0.17652 -0.60682,0.42042 -1.21875,0.75 0.76464,0.141 1.390738,0.52088 1.84375,1.15625 0.452993,0.63538 0.652334,1.34083 0.59375,2.09375 -0.106211,1.28211 -0.598276,2.23536 -1.46875,2.90625 -0.45887,0.35266 -1.299934,0.75208 -2.5,1.1875 -0.52918,0.0941 -1.060308,0.15625 -1.625,0.15625 -1.658938,0 -2.864259,-0.33728 -3.59375,-1.03125 -0.176514,-0.22375 -0.250001,-2.03405 -0.25,-5.375 -10e-7,-3.96495 0.09302,-6.14305 0.28125,-6.53125 0.823607,-0.70567 2.059811,-1.03123 3.71875,-1.03125 z m 10.6875,0 c 0.48229,2e-5 0.84655,0.0156 1.09375,0.0625 1.29382,0.24721 2.23962,0.70625 2.875,1.40625 0.63537,0.70003 0.99608,1.60536 1.03125,2.6875 -0.0941,0.63539 -0.35792,1.16261 -0.78125,1.5625 -0.18824,0.17652 -0.60682,0.42042 -1.21875,0.75 0.76464,0.141 1.39074,0.52088 1.84375,1.15625 0.45299,0.63538 0.65233,1.34083 0.59375,2.09375 -0.10621,1.28211 -0.59828,2.23536 -1.46875,2.90625 -0.45887,0.35266 -1.29993,0.75208 -2.5,1.1875 -0.52918,0.0941 -1.06031,0.15625 -1.625,0.15625 -1.65894,0 -2.86426,-0.33728 -3.59375,-1.03125 -0.17651,-0.22375 -0.25,-2.03405 -0.25,-5.375 0,-3.96495 0.093,-6.14305 0.28125,-6.53125 0.82361,-0.70567 2.05981,-1.03123 3.71875,-1.03125 z M 83.25,53.549673 c 0.941156,2e-5 1.861748,0.31404 2.75,0.9375 0.888236,0.62349 1.475454,1.38698 1.78125,2.28125 0.658803,1.9413 0.999989,3.44911 1,4.53125 -1.1e-5,0.91773 -0.189952,1.93311 -0.53125,3.0625 l 0.03125,0 0.03125,0.0312 c -0.306163,0.95289 -0.854502,1.69703 -1.625,2.25 -0.770516,0.55298 -1.675666,0.84375 -2.6875,0.84375 -1.87061,0 -3.308475,-0.71325 -4.34375,-2.125 -0.882203,-1.20007 -1.343751,-2.65746 -1.34375,-4.375 -10e-7,-0.78844 0.07776,-1.51696 0.21875,-2.1875 0.647093,-3.0703 2.031003,-4.79893 4.125,-5.1875 0.188227,-0.0351 0.381709,-0.0625 0.59375,-0.0625 z m -11,0.1875 c 0.12927,-0.0117 0.284421,2e-5 0.4375,0 0.505734,2e-5 0.869991,0.10048 1.09375,0.3125 0.09411,0.0941 0.272334,0.38527 0.53125,0.84375 0.199946,0.77675 0.281245,1.73781 0.28125,2.9375 -5e-6,0.74122 -0.0774,1.92347 -0.21875,3.5 -0.09412,1.09425 -0.101934,1.67933 -0.03125,1.75 0.447138,-0.22375 0.997431,-0.34374 1.65625,-0.34375 0.164422,1e-5 0.304314,0.027 0.375,0.0625 0.341301,0.11756 0.585198,0.36964 0.75,0.78125 0.105827,0.27064 0.171867,0.65015 0.21875,1.15625 -0.133042,0.99362 -0.519681,1.67398 -1.125,2 -0.847052,0.34095 -1.692022,0.5 -2.5625,0.5 -2.494264,0 -3.75,-1.3374 -3.75,-4.03125 l 0,-1.0625 c 0,-0.12926 0.01953,-0.32311 0.03125,-0.59375 0.01208,-0.21166 0,-0.37462 0,-0.46875 -0.05896,-2.3767 0.05359,-4.26402 0.3125,-5.6875 0.211669,-0.59984 0.442259,-1.02641 0.71875,-1.25 0.276487,-0.22356 0.704832,-0.35899 1.28125,-0.40625 z m 21.8125,2.96875 c -0.153081,1e-5 -0.257817,0.008 -0.28125,0.0312 -0.0824,0.0117 -0.148076,0.0778 -0.21875,0.21875 0.08239,0.69435 0.101558,1.485 0.03125,2.34375 l 0.75,-0.5 c 0.353022,-0.61156 0.531244,-1.08837 0.53125,-1.40625 -6e-6,-0.0586 -0.0078,-0.13207 -0.03125,-0.25 -0.05897,-0.30614 -0.322393,-0.43749 -0.78125,-0.4375 z m 10.6875,0 c -0.15308,1e-5 -0.25782,0.008 -0.28125,0.0312 -0.0824,0.0117 -0.14808,0.0778 -0.21875,0.21875 0.0824,0.69435 0.10156,1.485 0.0312,2.34375 l 0.75,-0.5 c 0.35302,-0.61156 0.53124,-1.08837 0.53125,-1.40625 -1e-5,-0.0586 -0.008,-0.13207 -0.0312,-0.25 -0.059,-0.30614 -0.32239,-0.43749 -0.78125,-0.4375 z m -21.15625,1.5 c -0.185362,0.0794 -0.341114,0.36723 -0.5,0.84375 -0.211858,0.63539 -0.312505,1.32911 -0.3125,2.09375 -5e-6,1.42347 0.372065,2.08631 1.125,1.96875 l 0,-0.0312 c 0.341302,-0.059 0.499993,-0.69054 0.5,-1.9375 -7e-6,-0.71776 -0.05805,-1.39409 -0.1875,-2 -0.129462,-0.60588 -0.253546,-0.91405 -0.40625,-0.9375 -0.06473,-0.0177 -0.156963,-0.0265 -0.21875,0 z m 10.5,3.4375 c -0.199956,1e-5 -0.405522,0.0657 -0.59375,0.21875 0.01171,0.15308 0.01562,0.43214 -0.03125,0.84375 -0.07068,0.49403 -0.125004,0.80006 -0.125,0.90625 -4e-6,0.0703 0.0078,0.26844 0.03125,0.5625 0.353023,-0.0469 0.624263,-0.18286 0.8125,-0.40625 0.07931,-0.10223 0.22099,-0.32695 0.34375,-0.625 l 0,-0.0312 c 0.0753,-0.25525 0.124995,-0.47629 0.125,-0.65625 -5e-6,-0.54125 -0.197759,-0.81249 -0.5625,-0.8125 z m 10.6875,0 c -0.19996,1e-5 -0.40552,0.0657 -0.59375,0.21875 0.0117,0.15308 0.0156,0.43214 -0.0312,0.84375 -0.0707,0.49403 -0.125,0.80006 -0.125,0.90625 0,0.0703 0.008,0.26844 0.0312,0.5625 0.35302,-0.0469 0.62426,-0.18286 0.8125,-0.40625 0.0793,-0.10223 0.22099,-0.32695 0.34375,-0.625 l 0,-0.0312 c 0.0753,-0.25525 0.12499,-0.47629 0.125,-0.65625 -1e-5,-0.54125 -0.19776,-0.81249 -0.5625,-0.8125 z"
       id="rect2998"
       inkscape:connector-curvature="0" />
    <path
       style="fill:#fcff89;fill-opacity:0.39215687;stroke:none"
       d="m 128,28.362176 0,63.999997 64,0 0,-63.999997 -64,0 z m 15.875,24.874997 c 0.77636,2e-5 1.5111,0.21907 2.1875,0.625 0.67638,0.40596 1.18566,0.94276 1.5625,1.625 0.22338,0.41164 0.36327,0.86891 0.375,1.375 0.0117,0.48231 -0.12818,0.91261 -0.375,1.3125 -0.3296,0.54127 -0.73219,0.84767 -1.25,0.90625 -0.82325,0.0824 -1.55213,-0.30138 -2.1875,-1.125 -0.0117,-0.0352 -0.027,-0.15905 -0.0625,-0.40625 -0.0234,-0.18822 -0.12855,-0.29332 -0.28125,-0.28125 l -0.1875,0.34375 c -0.11756,2.49391 -0.15625,3.75355 -0.15625,3.8125 0,0.34132 0.008,0.6706 0.0312,1 0.0236,0.32941 0.1477,0.55042 0.40625,0.65625 0.27062,-0.0117 0.74157,-0.31792 1.40625,-0.90625 0.66467,-0.58831 1.1278,-0.87499 1.375,-0.875 0.18822,1e-5 0.39379,0.0426 0.59375,0.125 0.67052,0.19996 0.99999,0.69984 1,1.5 l 0,0.0312 0,0.25 c 0.0117,0.11756 -1e-5,0.17188 0,0.21875 -1e-5,1.7179 -0.6316,2.88843 -1.9375,3.5 -0.72913,0.34131 -1.50843,0.53125 -2.34375,0.53125 -1.11768,0 -2.04395,-0.31384 -2.75,-0.9375 -1.48206,-1.3059 -2.19922,-3.13537 -2.1875,-5.5 0,-1.03527 0.0969,-2.21361 0.34375,-3.53125 0.18823,-1.01183 0.59509,-1.95372 1.21875,-2.8125 0.30578,-0.42332 0.76129,-0.76646 1.34375,-1.03125 0.58245,-0.26475 1.20446,-0.40623 1.875,-0.40625 z m 13.375,0.375 c 0.41161,-0.0117 0.67113,-0.004 0.8125,0.0312 0.52917,0.14101 0.88598,0.5287 1.0625,1.1875 0.059,0.19997 0.11681,0.4247 0.1875,0.625 0.10582,0.3882 0.17577,0.78761 0.1875,1.1875 0.0707,1.64723 0.0937,2.86427 0.0937,3.6875 -1e-5,1.74134 -0.30604,3.65601 -0.90625,5.75 -0.18824,0.6471 -0.68421,1.07349 -1.53125,1.25 -0.54127,0.11756 -0.98328,0.0671 -1.3125,-0.15625 -0.44715,-0.29406 -0.71058,-0.78613 -0.78125,-1.46875 -0.0234,-0.18823 -0.01,-0.5177 0.0312,-1 0.0412,-0.48229 0.043,-0.84301 0.0312,-1.03125 -0.0707,-0.29406 -0.25672,-0.43749 -0.5625,-0.4375 -0.29407,1e-5 -0.55182,0.12018 -0.78125,0.34375 -0.22944,0.22358 -0.32422,0.52198 -0.3125,0.875 0.059,0.23511 0.14416,0.65015 0.25,1.25 0.0586,0.40027 0.0316,0.69458 -0.0625,0.90625 -0.141,0.31751 -0.36963,0.54615 -0.6875,0.6875 -0.21167,0.0941 -0.59156,0.15625 -1.15625,0.15625 -0.54126,0 -0.99109,-0.18603 -1.34375,-0.5625 -0.29443,-0.31787 -0.55005,-0.86462 -0.75,-1.59375 -0.23511,-0.81188 -0.35156,-1.69909 -0.375,-2.6875 -0.0355,-1.42345 -0.0625,-2.64477 -0.0625,-3.65625 0,-2.24706 0.22864,-3.70409 0.6875,-4.375 0.5147,-0.50608 1.15775,-0.78123 1.9375,-0.78125 0.65881,2e-5 1.13171,0.10475 1.4375,0.28125 0.3413,0.34096 0.53906,0.86427 0.5625,1.59375 -0.0707,0.57643 -0.1211,1.34755 -0.15625,2.3125 0.14099,0.51747 0.34265,0.78126 0.625,0.78125 0.1062,1e-5 0.27661,-0.0504 0.5,-0.15625 0.12927,-0.0589 0.21057,-0.2954 0.28125,-0.71875 -0.0707,-0.61193 -0.10157,-1.4608 -0.125,-2.53125 0.0472,-0.61192 0.42712,-1.14696 1.15625,-1.59375 0.14135,-0.0824 0.50951,-0.13243 1.0625,-0.15625 z m 12.4375,0.0937 c 0.50573,2e-5 0.86999,0.13173 1.09375,0.34375 0.0941,0.0941 0.27233,0.35402 0.53125,0.8125 0.19995,0.77675 0.28124,1.76906 0.28125,2.96875 -1e-5,0.74122 -0.0774,1.89222 -0.21875,3.46875 -0.0941,1.09425 -0.10193,1.67933 -0.0312,1.75 0.44714,-0.22375 0.99743,-0.34374 1.65625,-0.34375 0.16442,1e-5 0.30431,0.027 0.375,0.0625 0.3413,0.11756 0.5852,0.36964 0.75,0.78125 0.10583,0.27064 0.17187,0.6814 0.21875,1.1875 -0.13304,0.99362 -0.51968,1.64273 -1.125,1.96875 -0.84705,0.34095 -1.69202,0.5 -2.5625,0.5 -2.49426,0 -3.75,-1.3374 -3.75,-4.03125 l 0,-1.03125 c 0,-0.12926 0.0195,-0.32311 0.0312,-0.59375 0.0121,-0.21166 0,-0.37462 0,-0.46875 -0.059,-2.3767 0.0536,-4.29527 0.3125,-5.71875 0.21167,-0.59984 0.44226,-0.99516 0.71875,-1.21875 0.27649,-0.22356 0.70483,-0.35899 1.28125,-0.40625 0.12927,-0.0117 0.28442,-0.0312 0.4375,-0.0312 z m 8.34375,0 c 0.50573,2e-5 0.86999,0.13173 1.09375,0.34375 0.0941,0.0941 0.27233,0.35402 0.53125,0.8125 0.19995,0.77675 0.31249,1.76906 0.3125,2.96875 -1e-5,0.74122 -0.0774,1.89222 -0.21875,3.46875 -0.0941,1.09425 -0.10193,1.67933 -0.0312,1.75 0.44714,-0.22375 0.99743,-0.34374 1.65625,-0.34375 0.16442,1e-5 0.27306,0.027 0.34375,0.0625 0.3413,0.11756 0.61645,0.36964 0.78125,0.78125 0.10583,0.27064 0.17187,0.6814 0.21875,1.1875 -0.13304,0.99362 -0.51968,1.64273 -1.125,1.96875 -0.84705,0.34095 -1.69202,0.5 -2.5625,0.5 -2.49426,0 -3.75,-1.3374 -3.75,-4.03125 l 0,-1.03125 c 0,-0.12926 -0.0117,-0.32311 0,-0.59375 0.0121,-0.21166 0.0312,-0.37462 0.0312,-0.46875 -0.059,-2.3767 0.0536,-4.29527 0.3125,-5.71875 0.21167,-0.59984 0.44226,-0.99516 0.71875,-1.21875 0.27649,-0.22356 0.70483,-0.35899 1.28125,-0.40625 0.12927,-0.0117 0.25317,-0.0312 0.40625,-0.0312 z m -13.84375,0.15625 c 0.25891,2e-5 0.48754,0.0153 0.6875,0.0625 0.32958,0.15273 0.55041,0.4435 0.65625,0.84375 l 0.15625,1.0625 c -1e-5,0.48231 0.008,1.08711 0.0312,1.78125 0.0236,0.69416 0.0625,1.11256 0.0625,1.3125 0.0117,2.32948 -0.17042,4.41456 -0.5,6.25 -0.21167,1.18799 -0.75452,1.92078 -1.625,2.15625 -0.25891,0.0234 -0.43714,0.0312 -0.53125,0.0312 -1.18836,0 -1.84729,-0.56237 -2,-1.65625 -0.27063,-1.88268 -0.38672,-3.57616 -0.375,-5.09375 0.0117,-1.59996 0.10828,-3.01476 0.34375,-4.25 l 0.5,-1.1875 c 0.61157,-0.88255 1.46435,-1.31248 2.59375,-1.3125 z"
       id="rect3768"
       inkscape:connector-curvature="0" />
    <path
       style="fill:#89ff90;fill-opacity:0.39215687;stroke:none"
       d="m 192,28.362176 0,63.999997 64,0 0,-63.999997 -64,0 z m 44.625,24.906247 c 1.41174,2e-5 2.46972,0.43031 3.1875,1.3125 0.4237,0.51784 0.72973,1.11854 0.90625,1.8125 0.64672,2.48256 0.96874,4.68018 0.96875,6.5625 -1e-5,1.10596 -0.093,2.14869 -0.28125,3.125 -0.10585,0.5647 -0.47438,0.92115 -1.0625,1.0625 -0.29408,0.0703 -0.58839,0.125 -0.90625,0.125 -0.57642,0 -1.04151,-0.13562 -1.40625,-0.40625 -0.25855,-0.34094 -0.42152,-0.58166 -0.46875,-0.6875 -0.15272,-0.30615 -0.21876,-0.7052 -0.21875,-1.1875 -0.47059,-0.0234 -1.02479,0.0231 -1.625,0.0937 0.0234,0.10584 0.0699,0.25708 0.0937,0.46875 -1e-5,0.4823 -0.13563,0.98218 -0.40625,1.5 -0.34131,0.4823 -0.84119,0.71875 -1.5,0.71875 -0.31751,0 -0.71692,-0.07 -1.1875,-0.1875 l -0.0312,-0.0312 c -0.99976,-0.49402 -1.5,-1.72277 -1.5,-3.6875 0,-0.12927 0.008,-0.42394 0.0312,-0.90625 0.0941,-1.84716 0.25281,-3.29674 0.5,-4.34375 0.35266,-1.48241 0.98071,-2.82372 1.875,-4 0.69397,-0.90599 1.71362,-1.34373 3.03125,-1.34375 z m -8.59375,0.0312 c 0.55297,2e-5 0.9829,0.14345 1.3125,0.4375 0.62328,0.412 0.93749,1.0901 0.9375,2.03125 -0.10585,0.97633 -0.41224,2.02687 -0.90625,3.15625 -0.29408,0.65882 -0.77442,1.62379 -1.46875,2.90625 -1e-5,0.50575 -0.0195,1.2616 -0.0312,2.25 -0.0234,0.87049 -0.15907,1.57984 -0.40625,2.15625 -0.30579,0.69434 -0.81385,1.19068 -1.53125,1.4375 -0.18824,0.0238 -0.32386,0.0312 -0.40625,0.0312 -0.94117,0 -1.57276,-0.38379 -1.9375,-1.125 -0.1648,-0.47058 -0.25,-1.07873 -0.25,-1.84375 0,-0.36437 -0.0117,-0.71337 0,-1.03125 0.0117,-0.42333 0.0117,-0.72546 0,-0.9375 -1.9292,-3.29406 -2.875,-5.64293 -2.875,-7.03125 0,-0.82323 0.27515,-1.38133 0.875,-1.6875 l 0.0312,0 c 0.29407,-0.15269 0.59619,-0.24998 0.9375,-0.25 0.72949,2e-5 1.27624,0.2986 1.59375,0.875 0.25891,0.28236 0.48364,0.80958 0.71875,1.5625 0.30615,0.98805 0.48437,1.51136 0.53125,1.59375 0.51782,-2.21153 1.14977,-3.66112 1.84375,-4.34375 0.32922,-0.12926 0.6665,-0.18748 1.03125,-0.1875 z m -24.59375,0.21875 c 1.80029,0.0586 3.01696,0.64015 3.6875,1.78125 0.50573,1.14149 0.76171,2.20338 0.75,3.15625 -0.0117,0.97633 -0.26344,1.7787 -0.78125,2.4375 -0.082,0.10584 -0.44276,0.41969 -1.03125,0.9375 1.32934,1.43519 1.99999,2.66041 2,3.625 -1e-5,0.0707 -0.008,0.17115 -0.0312,0.3125 l -0.0312,0 c -0.16481,0.35267 -0.42433,0.69776 -0.8125,1.0625 -0.50575,0.45887 -1.01344,0.72229 -1.53125,0.78125 -0.99976,0.10584 -2.01514,-0.92126 -3.0625,-3.0625 0.0355,0.30579 0.0312,0.58875 0.0312,0.8125 -10e-6,0.7295 -0.17823,1.29541 -0.53125,1.71875 -0.54126,0.37647 -1.08374,0.5625 -1.625,0.5625 -0.23511,0 -0.43677,-0.0156 -0.625,-0.0625 -0.69397,-0.17651 -1.13172,-0.41687 -1.34375,-0.6875 -0.28235,-0.35302 -0.4375,-0.98852 -0.4375,-1.90625 l 0,-0.6875 c -0.0352,-0.0351 -0.0277,-1.08569 0.0312,-3.15625 0.0703,-2.34118 0.2063,-4.12023 0.40625,-5.34375 0.15307,-0.88255 0.78076,-1.51451 1.875,-1.84375 0.51745,-0.15306 1.54492,-0.28477 3.0625,-0.4375 z m 10.625,0.1875 c 0.94116,2e-5 1.86175,0.31404 2.75,0.9375 0.88824,0.62349 1.5067,1.38698 1.8125,2.28125 0.6588,1.9413 0.96874,3.44911 0.96875,4.53125 -1e-5,0.91773 -0.1587,1.93311 -0.5,3.0625 l 0.0312,0.0312 c -0.30616,0.95289 -0.8545,1.69703 -1.625,2.25 -0.77052,0.55298 -1.64442,0.84375 -2.65625,0.84375 -1.87061,0 -3.33972,-0.71325 -4.375,-2.125 -0.8822,-1.20007 -1.3125,-2.65746 -1.3125,-4.375 0,-0.78844 0.0778,-1.51696 0.21875,-2.1875 0.64709,-3.0703 1.99975,-4.79893 4.09375,-5.1875 0.18823,-0.0351 0.38171,-0.0625 0.59375,-0.0625 z m 30.96875,0.1875 c 0.12927,-0.0117 0.25317,2e-5 0.40625,0 0.50573,2e-5 0.86999,0.10048 1.09375,0.3125 0.0941,0.0941 0.27233,0.35402 0.53125,0.8125 0.19995,0.77675 0.31249,1.76906 0.3125,2.96875 -1e-5,0.74122 -0.0774,1.89222 -0.21875,3.46875 -0.0941,1.09425 -0.10193,1.67933 -0.0312,1.75 0.44714,-0.22375 0.99743,-0.31249 1.65625,-0.3125 0.16442,1e-5 0.27306,-0.004 0.34375,0.0312 0.3413,0.11756 0.61645,0.40089 0.78125,0.8125 0.10336,0.26432 0.17162,0.63608 0.21875,1.125 l -0.0312,0 c -0.12928,1.01185 -0.48182,1.67041 -1.09375,2 -0.84705,0.34095 -1.72327,0.53125 -2.59375,0.53125 -2.49426,0 -3.71875,-1.36865 -3.71875,-4.0625 l 0,-1.03125 c 0,-0.12926 -0.0117,-0.32311 0,-0.59375 0.0121,-0.21166 0.0312,-0.37462 0.0312,-0.46875 -0.059,-2.3767 0.0223,-4.26402 0.28125,-5.6875 0.21167,-0.59984 0.47351,-1.02641 0.75,-1.25 0.27649,-0.22356 0.70483,-0.35899 1.28125,-0.40625 z m -8.4375,3.0625 c -0.0617,0.0147 -0.13636,0.0543 -0.21875,0.125 -0.15308,1.00013 -0.24183,1.81422 -0.3125,2.4375 -0.11756,1.09425 -0.16053,1.72193 -0.125,1.875 0.0586,0.12928 0.13989,0.18751 0.28125,0.1875 0.0469,1e-5 0.1809,-0.0213 0.375,-0.0625 0.19409,-0.0412 0.30822,-0.0625 0.34375,-0.0625 0.0824,-0.95287 0.0128,-2.44506 -0.1875,-4.46875 -0.041,-0.0412 -0.0945,-0.046 -0.15625,-0.0312 z m -33.8125,0.53125 c -0.0472,1e-5 -0.21375,0.0852 -0.53125,0.25 -0.0469,0.0469 -0.0742,0.35328 -0.0625,0.90625 0.0117,0.64711 0.0312,1.26734 0.0312,1.84375 0.44714,-0.1527 0.81335,-0.36785 1.125,-0.65625 0.31164,-0.28838 0.46874,-0.58873 0.46875,-0.90625 -1e-5,-0.43541 -0.25953,-0.89269 -0.8125,-1.375 l -0.0312,0 c -0.0707,-0.0234 -0.14063,-0.0625 -0.1875,-0.0625 z m 11.65625,0.875 c -0.18536,0.0794 -0.37236,0.36723 -0.53125,0.84375 -0.21186,0.63539 -0.3125,1.32911 -0.3125,2.09375 0,1.42347 0.37206,2.08631 1.125,1.96875 l 0,-0.0312 c 0.3413,-0.059 0.53124,-0.72179 0.53125,-1.96875 -1e-5,-0.71776 -0.0581,-1.36284 -0.1875,-1.96875 -0.12946,-0.60588 -0.2848,-0.91405 -0.4375,-0.9375 -0.0647,-0.0177 -0.12571,-0.0265 -0.1875,0 z"
       id="rect3770"
       inkscape:connector-curvature="0" />
    <path
       style="fill:#00d2ea;fill-opacity:0.39215687;stroke:none"
       d="m 256,28.362176 0,63.999997 64,0 0,-63.999997 -64,0 z m 21,24.343747 c 2.08227,2e-5 3.59008,0.71327 4.53125,2.125 0.62365,0.96461 0.93749,1.95692 0.9375,2.96875 -10e-6,1.09425 -0.37599,2.10963 -1.09375,3.0625 -0.59986,0.79981 -1.90211,1.36964 -3.9375,1.6875 -0.0234,0.2234 -0.008,0.59974 0.0625,1.09375 0.0941,0.52955 0.15624,0.80433 0.15625,0.875 -10e-6,0.42334 -0.13953,0.88099 -0.375,1.375 -0.11756,0.2472 -0.34815,0.46021 -0.71875,0.625 -0.37061,0.1648 -0.79114,0.25 -1.25,0.25 -0.68225,0 -1.21906,-0.19189 -1.625,-0.5625 -0.40595,-0.3706 -0.62109,-0.87243 -0.65625,-1.53125 -0.27063,-1.15319 -0.41797,-2.35461 -0.40625,-3.625 l 0,-3.78125 c 0,-0.10582 0.0465,-0.54784 0.0937,-1.3125 0.0469,-0.69432 0.15552,-1.2794 0.34375,-1.75 0.24719,-0.61156 0.60364,-0.97581 1.0625,-1.09375 1.05871,-0.27025 2.01623,-0.40623 2.875,-0.40625 z m 19.15625,0 c 2.08227,2e-5 3.59008,0.71327 4.53125,2.125 0.62365,0.96461 0.93749,1.95692 0.9375,2.96875 -10e-6,1.09425 -0.37599,2.10963 -1.09375,3.0625 -0.59986,0.79981 -1.90211,1.36964 -3.9375,1.6875 -0.0234,0.2234 -0.008,0.59974 0.0625,1.09375 0.0941,0.52955 0.15624,0.80433 0.15625,0.875 -10e-6,0.42334 -0.13953,0.88099 -0.375,1.375 -0.11756,0.2472 -0.34815,0.46021 -0.71875,0.625 -0.37061,0.1648 -0.79114,0.25 -1.25,0.25 -0.68225,0 -1.21906,-0.19189 -1.625,-0.5625 -0.40595,-0.3706 -0.62109,-0.87243 -0.65625,-1.53125 -0.27063,-1.15319 -0.41797,-2.35461 -0.40625,-3.625 l 0,-3.78125 c 0,-0.10582 0.0465,-0.54784 0.0937,-1.3125 0.0469,-0.69432 0.15552,-1.2794 0.34375,-1.75 0.24719,-0.61156 0.60364,-0.97581 1.0625,-1.09375 1.05871,-0.27025 2.01623,-0.40623 2.875,-0.40625 z m -7.59375,0.0937 c 0.91735,2e-5 1.42895,0.22865 1.59375,0.6875 0.0707,0.18825 0.12499,0.38954 0.125,0.625 -10e-6,0.50575 -0.18604,0.93233 -0.5625,1.25 -0.37647,0.3177 -0.89197,0.46876 -1.5625,0.46875 -0.1648,1e-5 -0.31214,-0.0195 -0.40625,-0.0312 -0.0824,0.17653 -0.11329,0.45558 -0.125,0.84375 -0.0234,0.49403 -0.0508,0.80433 -0.0625,0.875 0.0351,0.16444 0.16332,0.26527 0.375,0.3125 0.3413,-0.27062 0.76379,-0.40624 1.28125,-0.40625 0.60021,1e-5 1.10009,0.25953 1.5,0.8125 0.0469,0.17652 0.0742,0.37428 0.0625,0.5625 -10e-6,0.62367 -0.27552,1.13917 -0.78125,1.5625 -0.45887,0.39991 -0.93922,0.5586 -1.46875,0.5 -0.0941,-0.0355 -0.27271,-0.0238 -0.53125,0 0.0234,0.141 -0.0192,0.51307 -0.125,1.125 -10e-6,0.28236 0.12817,0.48402 0.375,0.625 0.48266,-0.12927 0.88171,-0.12927 1.1875,0 0.48229,0.18824 0.73437,0.52161 0.78125,0.96875 0.0589,0.50574 -0.0847,1.00776 -0.4375,1.53125 -0.35285,0.5235 -0.8451,0.95948 -1.46875,1.3125 -0.55298,0.31787 -1.21583,0.5 -1.96875,0.5 -0.65882,0 -1.25171,-0.12781 -1.78125,-0.375 -0.22339,-0.10583 -0.55286,-0.44702 -1,-1 -0.4823,-0.80017 -0.70703,-2.4862 -0.71875,-5.0625 -0.0117,-1.48241 0.0848,-3.18798 0.34375,-5.09375 0.15271,-1.10594 0.48645,-1.82664 0.96875,-2.15625 l 2.9375,-0.28125 c 0.5061,-0.10582 1.00988,-0.15623 1.46875,-0.15625 z m 19.15625,0 c 0.91735,2e-5 1.4602,0.22865 1.625,0.6875 0.0707,0.18825 0.0937,0.38954 0.0937,0.625 -1e-5,0.50575 -0.18604,0.93233 -0.5625,1.25 -0.37647,0.3177 -0.89197,0.46876 -1.5625,0.46875 -0.1648,1e-5 -0.31214,-0.0195 -0.40625,-0.0312 -0.0824,0.17653 -0.11329,0.45558 -0.125,0.84375 -0.0234,0.49403 -0.0508,0.80433 -0.0625,0.875 0.0351,0.16444 0.16332,0.26527 0.375,0.3125 0.3413,-0.27062 0.76379,-0.40624 1.28125,-0.40625 0.60021,1e-5 1.10009,0.25953 1.5,0.8125 0.0469,0.17652 0.0742,0.37428 0.0625,0.5625 -1e-5,0.62367 -0.24427,1.13917 -0.75,1.5625 -0.45887,0.39991 -0.97047,0.5586 -1.5,0.5 -0.0941,-0.0355 -0.27271,-0.0238 -0.53125,0 0.0234,0.141 -0.0192,0.51307 -0.125,1.125 -1e-5,0.28236 0.12817,0.48402 0.375,0.625 0.48266,-0.12927 0.88171,-0.12927 1.1875,0 0.48229,0.18824 0.73437,0.52161 0.78125,0.96875 0.0589,0.50574 -0.0847,1.00776 -0.4375,1.53125 -0.35285,0.5235 -0.8451,0.95948 -1.46875,1.3125 -0.55298,0.31787 -1.18458,0.5 -1.9375,0.5 -0.65882,0 -1.25171,-0.12781 -1.78125,-0.375 -0.22339,-0.10583 -0.58411,-0.44702 -1.03125,-1 -0.4823,-0.80017 -0.70703,-2.4862 -0.71875,-5.0625 -0.0117,-1.48241 0.11609,-3.18798 0.375,-5.09375 0.15271,-1.10594 0.4552,-1.82664 0.9375,-2.15625 l 2.9375,-0.28125 c 0.5061,-0.10582 1.00988,-0.15623 1.46875,-0.15625 z m -30.65625,3.3125 c -0.059,0.49403 -0.0937,0.8661 -0.0937,1.125 0,0.36476 0.0195,0.636 0.0312,0.8125 0.0234,0.27064 0.0582,0.67005 0.0937,1.1875 0.10583,-0.0941 0.24145,-0.22973 0.40625,-0.40625 0.29725,-0.29725 0.50562,-0.5706 0.625,-0.8125 0.14135,-0.28234 0.21874,-0.55394 0.21875,-0.8125 -1e-5,-0.6588 -0.42249,-1.02306 -1.28125,-1.09375 z m 19.15625,0 c -0.059,0.49403 -0.0937,0.8661 -0.0937,1.125 0,0.36476 0.0195,0.636 0.0312,0.8125 0.0234,0.27064 0.0582,0.67005 0.0937,1.1875 0.10583,-0.0941 0.24145,-0.22973 0.40625,-0.40625 0.30578,-0.30578 0.50744,-0.59655 0.625,-0.84375 l 0.0312,0.0312 c 0.14135,-0.28234 0.18749,-0.55394 0.1875,-0.8125 -1e-5,-0.6588 -0.42249,-1.02306 -1.28125,-1.09375 z"
       id="rect3772"
       inkscape:connector-curvature="0" />
    <path
       style="fill:#898eff;fill-opacity:0.39215687;stroke:none"
       d="m 320,28.362176 0,63.999997 64,0 0,-63.999997 -64,0 z m 27.875,24.531247 c 0.77673,2e-5 1.5017,0.19777 2.125,0.5625 0.38818,0.23512 0.80285,0.67714 1.25,1.3125 0.18822,0.28236 0.26952,0.53407 0.28125,0.78125 0.0117,0.29408 -0.11219,0.67042 -0.40625,1.09375 -0.37647,0.52955 -0.77589,0.81251 -1.1875,0.8125 -0.141,1e-5 -0.31531,-0.0348 -0.5625,-0.0937 -0.37647,-0.0941 -0.5973,-0.43529 -0.65625,-1 -0.0234,-0.22338 -0.1825,-0.34374 -0.5,-0.34375 -0.1648,1e-5 -0.33948,0.0426 -0.46875,0.125 -0.12964,0.23512 -0.1875,0.48329 -0.1875,0.71875 0,0.39991 0.18603,0.72938 0.5625,1 1.3883,0.98841 2.22155,1.60865 2.46875,1.84375 0.88219,0.83534 1.34728,1.70728 1.40625,2.625 0.0117,0.2234 0.039,0.52979 0.0625,0.90625 0.0234,1.51758 -0.90321,2.68421 -2.75,3.53125 -0.69434,0.31787 -1.34546,0.5 -1.96875,0.5 -0.0941,0 -0.24146,-0.0391 -0.40625,-0.0625 l -0.0312,0 c -2.25879,-0.36474 -3.4801,-1.22107 -3.65625,-2.5625 -0.0472,-0.30578 -0.0762,-0.53265 -0.0937,-0.65625 -0.0176,-0.12359 -0.0312,-0.14099 -0.0312,-0.0937 0,-0.3175 0.12427,-0.60845 0.3125,-0.84375 0.18823,-0.23528 0.38989,-0.34374 0.625,-0.34375 0.10583,10e-6 0.41986,0.12995 0.9375,0.40625 0.51764,0.27631 0.86255,0.40626 1.0625,0.40625 0.0824,10e-6 0.19458,-0.008 0.3125,-0.0312 l 0,0.0312 0.0312,0 c 0.42334,-0.10583 0.64453,-0.30749 0.65625,-0.625 0,-0.11755 -0.0563,-0.23772 -0.15625,-0.34375 -0.1,-0.10601 -0.47791,-0.35009 -1.125,-0.75 -0.5409,-0.3413 -0.94031,-0.63988 -1.1875,-0.875 -0.34131,-0.32958 -0.65515,-0.77904 -0.9375,-1.34375 -0.36438,-0.7412 -0.53125,-1.48534 -0.53125,-2.25 0,-1.10594 0.44202,-2.09825 1.3125,-2.96875 0.9646,-0.96458 2.09643,-1.46873 3.4375,-1.46875 z m 9.28125,0.25 c 0.48229,2e-5 0.84655,0.0469 1.09375,0.0937 1.29382,0.24721 2.27087,0.70625 2.90625,1.40625 0.63537,0.70003 0.96483,1.60536 1,2.6875 -0.0941,0.63539 -0.35792,1.13136 -0.78125,1.53125 -0.18824,0.17652 -0.57557,0.45167 -1.1875,0.78125 0.76464,0.141 1.35949,0.52088 1.8125,1.15625 0.45299,0.63538 0.65233,1.34083 0.59375,2.09375 -0.10621,1.28211 -0.59828,2.23536 -1.46875,2.90625 -0.45887,0.35266 -1.26868,0.75208 -2.46875,1.1875 -0.52918,0.0941 -1.09156,0.15625 -1.65625,0.15625 -1.65894,0 -2.83301,-0.36853 -3.5625,-1.0625 -0.17651,-0.22375 -0.28125,-2.0028 -0.28125,-5.34375 0,-3.96495 0.093,-6.14305 0.28125,-6.53125 0.82361,-0.70567 2.05981,-1.06248 3.71875,-1.0625 z m 0.15625,3.21875 c -0.15308,1e-5 -0.22657,0.008 -0.25,0.0312 -0.0824,0.0117 -0.14808,0.0778 -0.21875,0.21875 0.0824,0.69435 0.0703,1.485 0,2.34375 l 0.78125,-0.5 c 0.35302,-0.61156 0.53124,-1.08837 0.53125,-1.40625 -10e-6,-0.0586 -0.008,-0.13207 -0.0312,-0.25 l -0.0312,0 c -0.059,-0.30614 -0.32239,-0.43749 -0.78125,-0.4375 z m 0.0625,4.9375 c -0.19996,1e-5 -0.40552,0.0657 -0.59375,0.21875 0.0117,0.15308 -0.0156,0.43214 -0.0625,0.84375 -0.0707,0.49403 -0.0937,0.80006 -0.0937,0.90625 0,0.0703 0.008,0.23719 0.0312,0.53125 0.35302,-0.0469 0.62426,-0.18286 0.8125,-0.40625 0.0791,-0.10195 0.19019,-0.29705 0.3125,-0.59375 l 0,-0.0312 c 0.0753,-0.25525 0.12499,-0.47629 0.125,-0.65625 -10e-6,-0.54125 -0.16651,-0.81249 -0.53125,-0.8125 z"
       id="rect3774"
       inkscape:connector-curvature="0" />
    <path
       style="fill:#ff89fc;fill-opacity:0.39215687;stroke:none"
       d="m 384,28.362176 0,63.999997 64,0 0,-63.999997 -64,0 z m 27.5625,24.031247 c 1.41174,2e-5 2.46972,0.43031 3.1875,1.3125 0.4237,0.51784 0.72973,1.14979 0.90625,1.84375 0.64672,2.48256 0.96874,4.64893 0.96875,6.53125 -10e-6,1.10596 -0.093,2.14869 -0.28125,3.125 l 0,0.0312 c -0.10585,0.5647 -0.44313,0.92115 -1.03125,1.0625 -0.29408,0.0703 -0.61964,0.0937 -0.9375,0.0937 -0.57642,0 -1.04151,-0.13562 -1.40625,-0.40625 -0.25855,-0.34094 -0.42152,-0.58166 -0.46875,-0.6875 -0.15272,-0.30615 -0.21876,-0.67395 -0.21875,-1.15625 -0.47059,-0.0234 -0.99354,-0.008 -1.59375,0.0625 0.0234,0.10584 0.0387,0.25708 0.0625,0.46875 -10e-6,0.4823 -0.13563,0.98218 -0.40625,1.5 -0.34131,0.4823 -0.84119,0.71875 -1.5,0.71875 -0.31751,0 -0.71692,-0.0387 -1.1875,-0.15625 l -0.0312,-0.0312 c -0.99976,-0.49402 -1.5,-1.72277 -1.5,-3.6875 0,-0.12927 0.008,-0.45519 0.0312,-0.9375 0.0941,-1.84716 0.25281,-3.29674 0.5,-4.34375 0.35266,-1.48241 0.98071,-2.79247 1.875,-3.96875 0.69397,-0.90599 1.71362,-1.37498 3.03125,-1.375 z m 11.5625,0 c 1.41174,2e-5 2.46972,0.43031 3.1875,1.3125 0.4237,0.51784 0.72973,1.14979 0.90625,1.84375 0.64672,2.48256 0.96874,4.64893 0.96875,6.53125 -10e-6,1.10596 -0.093,2.14869 -0.28125,3.125 l 0,0.0312 c -0.10585,0.5647 -0.44313,0.92115 -1.03125,1.0625 -0.29408,0.0703 -0.61964,0.0937 -0.9375,0.0937 -0.57642,0 -1.04151,-0.13562 -1.40625,-0.40625 -0.25855,-0.34094 -0.42152,-0.58166 -0.46875,-0.6875 -0.15272,-0.30615 -0.21876,-0.67395 -0.21875,-1.15625 -0.47059,-0.0234 -0.99354,-0.008 -1.59375,0.0625 0.0234,0.10584 0.0387,0.25708 0.0625,0.46875 -10e-6,0.4823 -0.13563,0.98218 -0.40625,1.5 -0.34131,0.4823 -0.84119,0.71875 -1.5,0.71875 -0.31751,0 -0.71692,-0.0387 -1.1875,-0.15625 l -0.0312,-0.0312 c -0.99976,-0.49402 -1.5,-1.72277 -1.5,-3.6875 0,-0.12927 0.008,-0.45519 0.0312,-0.9375 0.0941,-1.84716 0.28406,-3.29674 0.53125,-4.34375 0.35266,-1.48241 0.94946,-2.79247 1.84375,-3.96875 0.69397,-0.90599 1.71362,-1.37498 3.03125,-1.375 z m 16.1875,0.3125 c 0.64708,2e-5 1.12743,0.19386 1.46875,0.59375 0.44676,0.412 0.76097,0.94667 0.9375,1.59375 0.11791,0.43507 0.18358,1.10963 0.21875,2.0625 0.0117,0.87086 0.0195,1.75453 0.0312,2.625 0.0472,1.92957 0.0937,3.54212 0.0937,4.8125 -1e-5,0.61194 -0.12782,1.09656 -0.375,1.4375 -0.19996,0.27063 -0.46376,0.44886 -0.78125,0.53125 -0.16481,0.0472 -0.40089,0.0859 -0.71875,0.15625 -0.24684,0.059 -0.42933,0.0937 -0.5,0.0937 -0.50575,0 -0.92823,-0.20324 -1.28125,-0.65625 -0.35304,-0.453 -0.53126,-1.01696 -0.53125,-1.6875 -1e-5,-0.25891 0.0891,-0.87133 0.21875,-1.8125 0.10583,-0.72912 0.0941,-1.29504 0,-1.71875 -0.059,0.17652 -0.22547,0.69947 -0.53125,1.59375 -0.40028,1.1294 -0.77625,1.81568 -1.09375,2.0625 -0.17652,0.14136 -0.37818,0.21875 -0.625,0.21875 -0.18824,0 -0.39344,-0.0579 -0.59375,-0.1875 -0.63502,-0.65881 -1.11573,-1.9497 -1.46875,-3.84375 -0.059,0.29408 -0.0937,0.60047 -0.0937,0.90625 0,0.17652 0.0309,0.74634 0.125,1.6875 0.0707,0.6709 0.0707,1.19385 0,1.59375 -0.0941,0.51746 -0.33838,0.97473 -0.75,1.375 -0.41199,0.23511 -0.81104,0.34375 -1.1875,0.34375 -0.51746,0 -0.97083,-0.22863 -1.40625,-0.6875 -0.4823,-0.8236 -0.7926,-1.35473 -0.875,-1.625 -0.17651,-0.52954 -0.25,-1.31628 -0.25,-2.375 0,-0.97668 0.0852,-2.70531 0.25,-5.1875 0.059,-0.85875 0.31653,-1.61284 0.78125,-2.21875 0.46472,-0.60588 1.08691,-1.02623 1.875,-1.25 1.56481,-0.0469 2.75097,1.32143 3.5625,4.0625 0.0589,-0.50572 0.25671,-1.19591 0.5625,-2.03125 0.44714,-1.2235 0.93529,-1.9481 1.5,-2.21875 0.55297,-0.16478 1.04931,-0.24998 1.4375,-0.25 z m -39.78125,0.0937 c 0.48229,2e-5 0.84655,0.0156 1.09375,0.0625 1.29382,0.24721 2.27087,0.70625 2.90625,1.40625 0.63537,0.70003 0.96483,1.60536 1,2.6875 -0.0941,0.63539 -0.35792,1.16261 -0.78125,1.5625 -0.18824,0.17652 -0.57557,0.42042 -1.1875,0.75 0.76464,0.141 1.35949,0.52088 1.8125,1.15625 0.45299,0.63538 0.65233,1.34083 0.59375,2.09375 -0.10621,1.28211 -0.59828,2.23536 -1.46875,2.90625 -0.45887,0.35266 -1.29993,0.75208 -2.5,1.1875 -0.52918,0.0941 -1.06031,0.15625 -1.625,0.15625 -1.65894,0 -2.86426,-0.36853 -3.59375,-1.0625 -0.17651,-0.22375 -0.25,-2.0028 -0.25,-5.34375 0,-3.96495 0.093,-6.14305 0.28125,-6.53125 0.82361,-0.70567 2.05981,-1.03123 3.71875,-1.03125 z m 0.15625,3.1875 c -0.15308,1e-5 -0.22657,0.008 -0.25,0.0312 -0.0824,0.0117 -0.17933,0.0778 -0.25,0.21875 0.0824,0.69435 0.10156,1.485 0.0312,2.34375 l 0.78125,-0.5 c 0.35302,-0.61156 0.53124,-1.08837 0.53125,-1.40625 -1e-5,-0.0586 -0.0391,-0.13207 -0.0625,-0.25 -0.059,-0.30614 -0.32239,-0.43749 -0.78125,-0.4375 z m 11.84375,0.0937 c -0.0617,0.0147 -0.10511,0.0543 -0.1875,0.125 -0.15308,1.00013 -0.27308,1.81422 -0.34375,2.4375 -0.11756,1.09425 -0.16053,1.72193 -0.125,1.875 0.0586,0.12928 0.13989,0.18751 0.28125,0.1875 0.0469,10e-6 0.1809,-0.0213 0.375,-0.0625 0.19409,-0.0412 0.30822,-0.0625 0.34375,-0.0625 0.0824,-0.95287 0.0128,-2.44506 -0.1875,-4.46875 -0.041,-0.0412 -0.0945,-0.046 -0.15625,-0.0312 z m 11.59375,0 c -0.0617,0.0147 -0.13636,0.0543 -0.21875,0.125 -0.15308,1.00013 -0.27308,1.81422 -0.34375,2.4375 -0.11756,1.09425 -0.16053,1.72193 -0.125,1.875 0.0586,0.12928 0.17114,0.18751 0.3125,0.1875 0.0469,10e-6 0.14965,-0.0213 0.34375,-0.0625 0.19409,-0.0412 0.30822,-0.0625 0.34375,-0.0625 0.0824,-0.95287 0.0441,-2.44506 -0.15625,-4.46875 -0.041,-0.0412 -0.0945,-0.046 -0.15625,-0.0312 z m -23.40625,4.84375 c -0.19996,10e-6 -0.37427,0.0657 -0.5625,0.21875 0.0117,0.15308 -0.0156,0.43214 -0.0625,0.84375 -0.0707,0.49403 -0.125,0.80006 -0.125,0.90625 0,0.0703 0.0391,0.26844 0.0625,0.5625 0.35302,-0.0469 0.62426,-0.18286 0.8125,-0.40625 0.0792,-0.10207 0.18999,-0.3277 0.3125,-0.625 l 0,-0.0312 c 0.0753,-0.25525 0.12499,-0.47629 0.125,-0.65625 -10e-6,-0.54125 -0.19776,-0.81249 -0.5625,-0.8125 z"
       id="rect3776"
       inkscape:connector-curvature="0" />
    <path
       style="fill:#840000;fill-opacity:0.39215687;stroke:none"
       d="m 448,28.362176 0,63.999997 64,0 0,-63.999997 -64,0 z m 41.53125,24.062497 c 0.50609,0.0117 0.98272,0.21712 1.40625,0.59375 0.42351,0.37666 0.73363,0.86501 0.96875,1.5 l 0.0312,0 c 0.0469,0.55299 0.0625,1.16151 0.0625,1.84375 -1e-5,2.69422 -0.4225,5.17445 -1.28125,7.46875 -0.2234,0.59986 -0.58589,1.16809 -1.0625,1.65625 -0.47663,0.48816 -0.98255,0.78443 -1.5,0.9375 -0.48231,0.0707 -0.94739,0.125 -1.40625,0.125 -1.30591,0 -2.39869,-0.32556 -3.28125,-0.9375 -0.84705,-0.57641 -1.44031,-1.37878 -1.78125,-2.4375 -0.25891,-0.80016 -0.375,-1.90075 -0.375,-3.3125 0,-2.11742 0.21338,-3.90074 0.625,-5.3125 0.12964,-0.43541 0.38312,-0.81511 0.8125,-1.15625 0.42938,-0.34111 0.87707,-0.54649 1.3125,-0.59375 0.37646,-0.0351 0.75439,0.0831 1.125,0.3125 0.3706,0.22945 0.63635,0.51027 0.8125,0.875 0.0355,0.28236 0.0625,0.58876 0.0625,0.90625 -1e-5,0.3882 -0.1319,1.22944 -0.34375,2.5 -0.21186,1.27058 -0.3125,2.07276 -0.3125,2.4375 0,0.35304 0.0465,0.66688 0.0937,0.9375 0.0707,0.19996 0.24499,0.39381 0.5625,0.59375 0.38818,0.0469 0.67895,0.016 0.84375,-0.125 0.30578,-0.32958 0.49181,-0.7716 0.5625,-1.3125 -0.0117,-0.80016 0.0156,-1.83507 0.0625,-3.09375 0.11755,-1.01183 0.18322,-1.63951 0.21875,-1.875 0.0941,-0.67052 0.21447,-1.17857 0.34375,-1.53125 0.4237,-0.6826 0.8966,-1.0117 1.4375,-1 z m -14.375,0.0312 c 0.74121,2e-5 1.53222,0.0778 2.34375,0.21875 0.38818,0.14137 0.96154,0.3622 1.75,0.65625 0.6588,0.34096 1.06994,0.78651 1.1875,1.375 0.0355,0.17653 0.0625,0.40517 0.0625,0.6875 -0.0121,0.58815 -0.16725,1.03798 -0.4375,1.34375 -0.10621,0.11757 -0.56507,0.27858 -1.40625,0.4375 -0.84119,0.15895 -1.28907,0.23439 -1.3125,0.28125 -0.0234,0.12965 0.11218,1.35841 0.40625,3.6875 0.0589,0.47059 0.0937,0.96656 0.0937,1.4375 -1e-5,1.07044 -0.12391,1.93103 -0.40625,2.625 -0.35303,0.87085 -0.88026,1.30506 -1.5625,1.28125 -1.10596,-0.0352 -1.87708,-0.37243 -2.3125,-1.03125 -0.32923,-0.49401 -0.48828,-1.27294 -0.5,-2.34375 0,0.0941 0.0156,-0.54565 0.0625,-1.875 l 0.0937,-2.25 c 0.0469,-0.70568 0.11291,-1.32592 0.21875,-1.84375 -0.0703,0.0235 -0.17115,0.0313 -0.3125,0.0312 -0.3999,10e-6 -0.7876,-0.0582 -1.1875,-0.1875 -0.54126,-0.1765 -0.92505,-0.43993 -1.125,-0.78125 -0.28235,-0.48229 -0.4375,-0.9204 -0.4375,-1.34375 0,-0.70604 0.41113,-1.26805 1.1875,-1.65625 1.00012,-0.50572 2.182,-0.74998 3.59375,-0.75 z"
       id="rect3790"
       inkscape:connector-curvature="0" />
    <path
       style="fill:#818400;fill-opacity:0.39215687;stroke:none"
       d="m 512,28.362176 0,63.999997 64,0 0,-63.999997 -64,0 z m 39.4375,23.531247 c 1.17626,2e-5 2.23071,0.30214 3.125,0.9375 1.11767,0.79982 1.72619,1.63344 1.84375,2.46875 0.0234,0.17653 0.0312,0.34303 0.0312,0.53125 -10e-6,1.28248 -0.52332,2.21656 -1.59375,2.78125 -0.0472,0.15272 0.0422,0.24574 0.21875,0.28125 0.24718,0.0469 0.39062,0.10902 0.4375,0.15625 0.61193,0.45851 0.90624,1.16004 0.90625,2.125 -10e-6,0.38819 -0.0309,0.82239 -0.125,1.28125 -0.15309,0.71741 -0.56404,1.37635 -1.1875,2 -0.62348,0.62366 -1.30567,1.03052 -2.09375,1.21875 -0.57679,0.14099 -1.16614,0.21875 -1.71875,0.21875 -1.38831,0 -2.38416,-0.40722 -3.03125,-1.21875 -0.41199,-0.51782 -0.63709,-1.13024 -0.625,-1.8125 0.0117,-0.36474 0.0934,-0.67468 0.1875,-0.96875 0.12927,-0.23547 0.21057,-0.4176 0.28125,-0.5 0.11755,-0.16442 0.24554,-0.27129 0.375,-0.3125 0.12945,-0.0412 0.24573,-0.0625 0.375,-0.0625 0.14135,1e-5 0.45929,0.07 0.90625,0.1875 0.44696,0.11756 0.72619,0.18751 0.84375,0.1875 0.38855,1e-5 0.60937,-0.24816 0.65625,-0.71875 -0.0941,-0.3175 -0.32276,-0.51134 -0.6875,-0.59375 -0.22339,-0.0352 -0.58411,-0.0934 -1.03125,-0.1875 -0.34131,-0.12963 -0.52735,-0.38524 -0.5625,-0.75 -0.0469,-0.12926 -0.0625,-0.28051 -0.0625,-0.46875 0,-0.36474 0.11255,-0.64379 0.3125,-0.84375 0.0941,-0.0941 0.45446,-0.2766 1.125,-0.5 0.50573,-0.16478 0.78869,-0.39696 0.8125,-0.75 -0.059,-0.23546 -0.22937,-0.40587 -0.5,-0.5 -0.22339,-0.0117 -0.55872,0.0657 -1,0.21875 -0.44129,0.15309 -0.67188,0.21876 -0.71875,0.21875 -0.36475,1e-5 -0.72138,-0.18407 -1.0625,-0.53125 -0.34113,-0.34716 -0.53125,-0.71337 -0.53125,-1.125 0,-0.91771 0.698,-1.75877 2.0625,-2.5 0.57641,-0.31749 1.24279,-0.46873 2.03125,-0.46875 z m -8.1875,0.0625 c 0.81188,2e-5 1.50951,0.23219 2.0625,0.75 0.44713,0.31752 0.65624,0.95729 0.65625,1.875 -10e-6,1.97645 -0.96498,5.1703 -2.90625,9.59375 -0.47059,1.07044 -1.25733,1.69849 -2.375,1.875 -0.15308,0.0238 -0.30042,0.0312 -0.40625,0.0312 -0.58814,0 -1.1269,-0.10846 -1.65625,-0.34375 -0.52936,-0.23529 -0.94031,-0.54895 -1.1875,-0.9375 -0.78809,-1.23522 -1.3888,-2.7395 -1.8125,-4.46875 -0.36475,-1.50585 -0.53125,-2.90856 -0.53125,-4.25 0,-0.96459 0.0774,-1.65868 0.21875,-2.09375 0.17651,-0.52953 0.49426,-0.9481 1,-1.21875 0.43542,-0.23546 0.8501,-0.33629 1.25,-0.3125 0.7998,0.0469 1.36962,0.37636 1.6875,1 0.27062,0.55299 0.47973,1.66566 0.65625,3.3125 l 0.25,2.1875 c 0.0941,-0.84704 0.22564,-2.08538 0.4375,-3.75 0.21185,-1.6646 0.6654,-2.66258 1.3125,-2.96875 0.42333,-0.19993 0.86144,-0.28123 1.34375,-0.28125 z"
       id="rect3792"
       inkscape:connector-curvature="0" />
    <path
       style="fill:#008408;fill-opacity:0.39215687;stroke:none"
       d="m 576,28.362176 0,63.999997 64,0 0,-63.999997 -64,0 z m 30.28125,23.062497 c 0.81188,2e-5 1.47826,0.26344 2.03125,0.78125 0.44713,0.31752 0.68749,0.92604 0.6875,1.84375 -10e-6,1.97645 -0.96498,5.1703 -2.90625,9.59375 -0.47059,1.07044 -1.25733,1.69849 -2.375,1.875 -0.15308,0.0238 -0.30042,0.0312 -0.40625,0.0312 -0.58814,0 -1.15815,-0.10846 -1.6875,-0.34375 -0.52936,-0.23529 -0.90906,-0.54895 -1.15625,-0.9375 -0.78809,-1.23522 -1.3888,-2.7395 -1.8125,-4.46875 -0.36475,-1.50585 -0.53125,-2.90856 -0.53125,-4.25 0,-0.96459 0.0461,-1.65868 0.1875,-2.09375 0.17651,-0.52953 0.52551,-0.9481 1.03125,-1.21875 0.43542,-0.23546 0.8501,-0.33629 1.25,-0.3125 0.7998,0.0469 1.36962,0.37636 1.6875,1 0.27062,0.55299 0.47973,1.66566 0.65625,3.3125 l 0.25,2.1875 c 0.0941,-0.84704 0.22564,-2.08538 0.4375,-3.75 0.21185,-1.6646 0.63415,-2.66258 1.28125,-2.96875 0.42333,-0.19993 0.89269,-0.28123 1.375,-0.28125 z m 8.4375,0 c 0.5061,2e-5 0.97863,0.0579 1.4375,0.1875 0.88219,0.24684 1.61889,0.92177 2.21875,1.96875 0.51781,0.90602 0.76171,1.77797 0.75,2.625 -10e-6,0.16481 -0.008,0.29652 -0.0312,0.4375 -0.28236,1.14149 -0.75507,2.13947 -1.4375,2.96875 -0.68244,0.82929 -1.52369,1.40089 -2.5,1.71875 l 0.0312,0.1875 c 0.10583,1e-5 0.43939,-0.002 0.96875,-0.0312 0.52935,-0.0295 0.88598,-0.0625 1.0625,-0.0625 0.65881,1e-5 1.10436,0.0852 1.375,0.25 0.51781,0.31788 0.78124,0.85291 0.78125,1.59375 -10e-6,0.50611 -0.13136,0.89734 -0.4375,1.15625 -0.56471,0.47058 -1.3401,0.75745 -2.28125,0.875 -0.47059,0.0586 -1.24207,0.0937 -2.3125,0.0937 -1.05909,-0.15271 -1.85364,-0.38916 -2.40625,-0.71875 -0.50611,-0.30578 -0.87036,-0.7478 -1.09375,-1.3125 -0.18823,-0.49401 -0.30078,-0.95129 -0.3125,-1.375 -0.0117,-0.64709 0.30249,-1.61633 0.9375,-2.875 0.34131,-0.68224 1.01196,-1.39904 2,-2.1875 0.89428,-0.7174 1.35156,-1.09374 1.375,-1.09375 l -0.1875,-0.0625 c -0.61194,0.39991 -1.33655,0.59376 -2.21875,0.59375 -0.28235,1e-5 -0.52271,-0.0352 -0.6875,-0.0937 -0.69397,-0.23546 -1.09693,-0.70055 -1.25,-1.40625 -0.0352,-0.71776 0.15832,-1.33019 0.59375,-1.8125 0.98803,-1.0825 2.20153,-1.62498 3.625,-1.625 z"
       id="rect3794"
       inkscape:connector-curvature="0" />
    <path
       style="fill:#007684;fill-opacity:0.39215687;stroke:none"
       d="m 640,28.362176 0,63.999997 64,0 0,-63.999997 -64,0 z m 38.28125,22.874997 c 0.69396,-0.0234 1.30834,0.10616 1.84375,0.40625 0.53539,0.30013 0.93285,0.74037 1.15625,1.28125 0.0824,0.19997 0.12499,0.37428 0.125,0.5625 -10e-6,0.34132 -0.10475,0.64735 -0.28125,0.90625 -0.74122,0.79982 -1.48536,1.21876 -2.25,1.21875 -0.21168,1e-5 -0.40552,-0.0469 -0.59375,-0.0937 l -0.84375,-0.4375 c -0.0824,0.0941 -0.0859,0.24537 -0.0625,0.46875 0.0234,0.25892 0.004,0.43715 -0.0312,0.53125 0.0117,0.0469 0.004,0.1186 -0.0312,0.21875 -0.0353,0.10017 -0.0625,0.21095 -0.0625,0.28125 -10e-6,0.0473 0.0348,0.0977 0.0937,0.15625 1.57653,-0.0703 2.83227,0.42567 3.75,1.53125 0.32921,0.70606 0.46874,1.49671 0.46875,2.34375 -10e-6,1.14112 -0.26734,2.08301 -0.84375,2.8125 -1.01185,1.27039 -2.39149,1.90625 -4.15625,1.90625 -0.41163,0 -0.69495,-0.0195 -0.8125,-0.0312 -0.91773,-0.0941 -1.54151,-0.33056 -1.90625,-0.71875 -0.47058,-0.3999 -0.69922,-0.96582 -0.6875,-1.71875 0.0117,-1.03527 0.32947,-1.58202 1,-1.59375 0.29443,-0.0117 0.75561,-0.007 1.34375,-0.0312 0.47058,-0.0352 0.8153,-0.22118 1.0625,-0.5625 0.0586,-0.0824 0.0511,-0.31103 -0.0312,-0.6875 -0.17652,-0.19994 -0.40516,-0.31249 -0.6875,-0.3125 -0.0941,10e-6 -0.30927,0.0426 -0.65625,0.125 -0.34699,0.0824 -0.56214,0.12501 -0.65625,0.125 -0.15308,10e-6 -0.32776,-0.0231 -0.46875,-0.0937 -0.87048,-0.44677 -1.29297,-1.31127 -1.28125,-2.59375 0,-0.29406 0.0469,-0.74779 0.0937,-1.3125 0.16479,-0.94115 0.27307,-1.64269 0.34375,-2.125 0.21167,-0.78844 0.61889,-1.35045 1.21875,-1.65625 1.08252,-0.55296 2.3496,-0.84727 3.84375,-0.90625 z m -9.75,0.0937 c 0.81188,2e-5 1.47826,0.26344 2.03125,0.78125 0.44713,0.31752 0.68749,0.95729 0.6875,1.875 -10e-6,1.97645 -0.96498,5.1703 -2.90625,9.59375 -0.47059,1.07044 -1.28858,1.69849 -2.40625,1.875 -0.15308,0.0238 -0.26917,0.0312 -0.375,0.0312 -0.58814,0 -1.15815,-0.10846 -1.6875,-0.34375 -0.52936,-0.23529 -0.90906,-0.54895 -1.15625,-0.9375 -0.78809,-1.23522 -1.3888,-2.7395 -1.8125,-4.46875 -0.36475,-1.50585 -0.5625,-2.90856 -0.5625,-4.25 0,-0.96459 0.0774,-1.68993 0.21875,-2.125 0.17651,-0.52953 0.52551,-0.91685 1.03125,-1.1875 0.43542,-0.23546 0.8501,-0.33629 1.25,-0.3125 0.7998,0.0469 1.36962,0.37636 1.6875,1 0.27062,0.55299 0.47973,1.66566 0.65625,3.3125 l 0.25,2.1875 c 0.0941,-0.84704 0.22564,-2.08538 0.4375,-3.75 0.21185,-1.6646 0.63415,-2.66258 1.28125,-2.96875 0.42333,-0.19993 0.89269,-0.31248 1.375,-0.3125 z"
       id="rect3796"
       inkscape:connector-curvature="0" />
    <rect
       y="28.362175"
       x="704"
       height="64"
       width="64"
       id="rect3798"
       style="fill:#000684;fill-opacity:0.39215687;stroke:none" />
    <rect
       style="fill:#840081;fill-opacity:0.39215687;stroke:none"
       id="rect3800"
       width="64"
       height="64"
       x="768"
       y="28.362175" />
    <rect
       y="-35.637817"
       x="64"
       height="64"
       width="64"
       id="rect3842"
       style="fill:#ff8989;fill-opacity:0.39215687;stroke:none" />
    <rect
       style="fill:#fcff89;fill-opacity:0.39215687;stroke:none"
       id="rect3844"
       width="64"
       height="64"
       x="128"
       y="-35.637817" />
    <rect
       y="-35.637817"
       x="192"
       height="64"
       width="64"
       id="rect3846"
       style="fill:#89ff90;fill-opacity:0.39215687;stroke:none" />
    <rect
       style="fill:#00d2ea;fill-opacity:0.39215687;stroke:none"
       id="rect3848"
       width="64"
       height="64"
       x="256"
       y="-35.637817" />
    <rect
       y="-35.637817"
       x="320"
       height="64"
       width="64"
       id="rect3850"
       style="fill:#898eff;fill-opacity:0.39215687;stroke:none" />
    <rect
       style="fill:#ff89fc;fill-opacity:0.39215687;stroke:none"
       id="rect3852"
       width="64"
       height="64"
       x="384"
       y="-35.637817" />
    <rect
       style="fill:#840000;fill-opacity:0.39215687;stroke:none"
       id="rect3854"
       width="64"
       height="64"
       x="448"
       y="-35.637817" />
    <rect
       y="-35.637817"
       x="512"
       height="64"
       width="64"
       id="rect3856"
       style="fill:#818400;fill-opacity:0.39215687;stroke:none" />
    <rect
       style="fill:#008408;fill-opacity:0.39215687;stroke:none"
       id="rect3858"
       width="64"
       height="64"
       x="576"
       y="-35.637817" />
    <rect
       y="-35.637817"
       x="640"
       height="64"
       width="64"
       id="rect3860"
       style="fill:#007684;fill-opacity:0.39215687;stroke:none" />
    <rect
       style="fill:#000684;fill-opacity:0.39215687;stroke:none"
       id="rect3862"
       width="64"
       height="64"
       x="704"
       y="-35.637817" />
    <rect
       y="-35.637817"
       x="768"
       height="64"
       width="64"
       id="rect3864"
       style="fill:#840081;fill-opacity:0.39215687;stroke:none" />
    <text
       sodipodi:linespacing="125%"
       id="text3866"
       y="3.4813924"
       x="69.44799"
       style="font-size:18px;font-style:normal;font-variant:normal;font-weight:normal;font-stretch:normal;line-height:125%;letter-spacing:0px;word-spacing:0px;fill:#000000;fill-opacity:1;stroke:none;font-family:BubbleGum;-inkscape-font-specification:BubbleGum"
       xml:space="preserve"><tspan
         y="3.4813924"
         x="69.44799"
         id="tspan3868"
         sodipodi:role="line">LOBBY</tspan></text>
    <text
       sodipodi:linespacing="125%"
       id="text3870"
       y="3.463448"
       x="138.56947"
       style="font-size:18px;font-style:normal;font-variant:normal;font-weight:normal;font-stretch:normal;line-height:125%;letter-spacing:0px;word-spacing:0px;fill:#000000;fill-opacity:1;stroke:none;font-family:BubbleGum;-inkscape-font-specification:BubbleGum"
       xml:space="preserve"><tspan
         y="3.463448"
         x="138.56947"
         id="tspan3872"
         sodipodi:role="line">CHILL</tspan></text>
    <text
       sodipodi:linespacing="125%"
       id="text3874"
       y="3.6293263"
       x="197.46161"
       style="font-size:18px;font-style:normal;font-variant:normal;font-weight:normal;font-stretch:normal;line-height:125%;letter-spacing:0px;word-spacing:0px;fill:#000000;fill-opacity:1;stroke:none;font-family:BubbleGum;-inkscape-font-specification:BubbleGum"
       xml:space="preserve"><tspan
         y="3.6293263"
         x="197.46161"
         id="tspan3876"
         sodipodi:role="line">Royal</tspan></text>
    <text
       sodipodi:linespacing="125%"
       id="text3878"
       y="2.8231206"
       x="272.19278"
       style="font-size:18px;font-style:normal;font-variant:normal;font-weight:normal;font-stretch:normal;line-height:125%;letter-spacing:0px;word-spacing:0px;fill:#000000;fill-opacity:1;stroke:none;font-family:BubbleGum;-inkscape-font-specification:BubbleGum"
       xml:space="preserve"><tspan
         y="2.8231206"
         x="272.19278"
         id="tspan3880"
         sodipodi:role="line">pepe</tspan></text>
    <text
       sodipodi:linespacing="125%"
       id="text3882"
       y="3.1316838"
       x="342.62863"
       style="font-size:18px;font-style:normal;font-variant:normal;font-weight:normal;font-stretch:normal;line-height:125%;letter-spacing:0px;word-spacing:0px;fill:#000000;fill-opacity:1;stroke:none;font-family:BubbleGum;-inkscape-font-specification:BubbleGum"
       xml:space="preserve"><tspan
         y="3.1316838"
         x="342.62863"
         id="tspan3884"
         sodipodi:role="line">sb</tspan></text>
    <text
       sodipodi:linespacing="125%"
       id="text3886"
       y="2.7618489"
       x="394.90619"
       style="font-size:18px;font-style:normal;font-variant:normal;font-weight:normal;font-stretch:normal;line-height:125%;letter-spacing:0px;word-spacing:0px;fill:#000000;fill-opacity:1;stroke:none;font-family:BubbleGum;-inkscape-font-specification:BubbleGum"
       xml:space="preserve"><tspan
         y="2.7618489"
         x="394.90619"
         id="tspan3888"
         sodipodi:role="line">baam</tspan></text>
    <text
       sodipodi:linespacing="125%"
       id="text3890"
       y="2.435349"
       x="470.1582"
       style="font-size:18px;font-style:normal;font-variant:normal;font-weight:normal;font-stretch:normal;line-height:125%;letter-spacing:0px;word-spacing:0px;fill:#000000;fill-opacity:1;stroke:none;font-family:BubbleGum;-inkscape-font-specification:BubbleGum"
       xml:space="preserve"><tspan
         y="2.435349"
         x="470.1582"
         id="tspan3892"
         sodipodi:role="line">tu</tspan></text>
    <text
       sodipodi:linespacing="125%"
       id="text3894"
       y="1.991547"
       x="534.62634"
       style="font-size:18px;font-style:normal;font-variant:normal;font-weight:normal;font-stretch:normal;line-height:125%;letter-spacing:0px;word-spacing:0px;fill:#000000;fill-opacity:1;stroke:none;font-family:BubbleGum;-inkscape-font-specification:BubbleGum"
       xml:space="preserve"><tspan
         y="1.991547"
         x="534.62634"
         id="tspan3896"
         sodipodi:role="line">V3</tspan></text>
    <text
       sodipodi:linespacing="125%"
       id="text3898"
       y="1.4610828"
       x="597.651"
       style="font-size:18px;font-style:normal;font-variant:normal;font-weight:normal;font-stretch:normal;line-height:125%;letter-spacing:0px;word-spacing:0px;fill:#000000;fill-opacity:1;stroke:none;font-family:BubbleGum;-inkscape-font-specification:BubbleGum"
       xml:space="preserve"><tspan
         y="1.4610828"
         x="597.651"
         id="tspan3900"
         sodipodi:role="line">V2</tspan></text>
    <text
       sodipodi:linespacing="125%"
       id="text3902"
       y="1.3923725"
       x="659.90002"
       style="font-size:18px;font-style:normal;font-variant:normal;font-weight:normal;font-stretch:normal;line-height:125%;letter-spacing:0px;word-spacing:0px;fill:#000000;fill-opacity:1;stroke:none;font-family:BubbleGum;-inkscape-font-specification:BubbleGum"
       xml:space="preserve"><tspan
         y="1.3923725"
         x="659.90002"
         id="tspan3904"
         sodipodi:role="line">V5</tspan></text>
  </g>
</svg>
